<?xml version="1.0" encoding="UTF-8" standalone="no"?>
<!-- Created with Inkscape (http://www.inkscape.org/) -->

<svg
   width="118.73843mm"
   height="33.495586mm"
   viewBox="0 0 118.73842 33.495586"
   version="1.1"
   id="svg1"
   inkscape:version="1.4.4 (dcaf3e7, 2026-05-05)"
   sodipodi:docname="tada.svg"
   xmlns:inkscape="http://www.inkscape.org/namespaces/inkscape"
   xmlns:sodipodi="http://sodipodi.sourceforge.net/DTD/sodipodi-0.dtd"
   xmlns="http://www.w3.org/2000/svg"
   xmlns:svg="http://www.w3.org/2000/svg">
  <sodipodi:namedview
     id="namedview1"
     pagecolor="#000000"
     bordercolor="#000000"
     borderopacity="0.25"
     inkscape:showpageshadow="2"
     inkscape:pageopacity="0.0"
     inkscape:pagecheckerboard="0"
     inkscape:deskcolor="#d1d1d1"
     inkscape:document-units="mm"
     inkscape:zoom="0.90509668"
     inkscape:cx="-137.55437"
     inkscape:cy="-27.068932"
     inkscape:window-width="2510"
     inkscape:window-height="1371"
     inkscape:window-x="50"
     inkscape:window-y="32"
     inkscape:window-maximized="1"
     inkscape:current-layer="layer1" />
  <defs
     id="defs1">
    <rect
       x="272.26123"
       y="281.18784"
       width="669.9129"
       height="248.82329"
       id="rect2" />
  </defs>
  <style
     id="theme">
    /* Matches the wordmark fill in tada-light.svg / tada-dark.svg. Honoured even when
       this file is loaded through an &lt;img&gt;, which cannot inherit the page's CSS. */
    #text1 path { fill: #004d4f; }
    @media (prefers-color-scheme: dark) {
      #text1 path { fill: #8c97a6; }
    }
  </style>
  <g
     inkscape:label="Layer 1"
     inkscape:groupmode="layer"
     id="layer1"
     transform="translate(-42.911356,-142.28163)">
    <g
       id="text1"
       style="font-size:49.3889px;font-family:Quicksand;-inkscape-font-specification:Quicksand;text-align:center;text-anchor:middle;fill-opacity:1;stroke-width:9.04267;stroke-linecap:round;stroke-linejoin:round"
       transform="scale(1.1058678,0.90426721)"
       aria-label="tada">
      <path
         style="font-family:Comfortaa;-inkscape-font-specification:'Comfortaa, @wght=700';font-variation-settings:'wght' 700;fill-opacity:1"
         d="m 52.088948,193.89247 q -2.469445,0 -4.445002,-1.23472 -1.975556,-1.28411 -3.1115,-3.45722 -1.135945,-2.17312 -1.135945,-4.88951 v -23.5585 q 0,-1.08656 0.691445,-1.778 0.691444,-0.69145 1.778,-0.69145 1.086556,0 1.778,0.69145 0.691445,0.69144 0.691445,1.778 v 23.5585 q 0,1.97556 1.086556,3.30906 1.086556,1.3335 2.667001,1.3335 h 1.679222 q 0.889,0 1.481667,0.69145 0.642056,0.69144 0.642056,1.778 0,1.08655 -0.839611,1.778 -0.790223,0.69144 -2.074334,0.69144 z m -10.964336,-21.7805 q -1.037167,0 -1.679223,-0.59267 -0.642056,-0.59267 -0.642056,-1.48167 0,-0.98778 0.642056,-1.58044 0.642056,-0.59267 1.679223,-0.59267 h 11.408836 q 1.037167,0 1.679222,0.59267 0.642056,0.59266 0.642056,1.58044 0,0.889 -0.642056,1.48167 -0.642055,0.59267 -1.679222,0.59267 z"
         id="path8" />
      <path
         style="-inkscape-font-specification:'Quicksand, @wght=600';font-variation-settings:'wght' 600;letter-spacing:0px;fill-opacity:1"
         d="m 82.364298,167.5188 q 1.086555,0 1.778,0.74083 0.691445,0.69145 0.691445,1.778 v 21.33601 q 0,1.08655 -0.691445,1.82739 -0.691445,0.69144 -1.778,0.69144 -1.037167,0 -1.778001,-0.69144 -0.691445,-0.74084 -0.691445,-1.82739 v -3.556 l 1.037167,0.14816 q 0,0.889 -0.740833,1.97556 -0.691445,1.08656 -1.926167,2.12372 -1.234723,0.98778 -2.913945,1.67922 -1.679223,0.64206 -3.60539,0.64206 -3.407834,0 -6.124224,-1.72861 -2.716389,-1.778 -4.296834,-4.84011 -1.580445,-3.06212 -1.580445,-6.96384 0,-4.0005 1.580445,-7.01322 1.580445,-3.06211 4.247445,-4.79073 2.71639,-1.72861 6.025446,-1.72861 2.123723,0 3.901723,0.69145 1.82739,0.69144 3.16089,1.778 1.3335,1.08655 2.024945,2.32128 0.740833,1.18533 0.740833,2.27189 l -1.531056,0.14816 v -4.49439 q 0,-1.03716 0.691445,-1.778 0.740834,-0.74083 1.778001,-0.74083 z m -10.075336,22.32378 q 2.321278,0 4.099279,-1.18533 1.778,-1.18534 2.765778,-3.21028 0.987778,-2.07433 0.987778,-4.59317 0,-2.56822 -0.987778,-4.59317 -0.987778,-2.02494 -2.765778,-3.21027 -1.778001,-1.18534 -4.099279,-1.18534 -2.27189,0 -4.04989,1.18534 -1.728612,1.18533 -2.765779,3.21027 -0.987778,2.02495 -0.987778,4.59317 0,2.51884 0.987778,4.59317 1.037167,2.02494 2.765779,3.21028 1.778,1.18533 4.04989,1.18533 z m 40.745758,-32.4979 q 1.08656,0 1.77801,0.69145 0.69144,0.69144 0.69144,1.82739 v 31.51012 q 0,1.08655 -0.69144,1.82739 -0.69145,0.69144 -1.77801,0.69144 -1.03716,0 -1.778,-0.69144 -0.69144,-0.74084 -0.69144,-1.82739 v -3.556 l 1.03717,0.0494 q 0,0.889 -0.74084,2.02494 -0.69144,1.08656 -1.92616,2.12372 -1.23473,1.03717 -2.91395,1.72861 -1.67922,0.64206 -3.60539,0.64206 -3.407833,0 -6.124223,-1.72861 -2.716389,-1.778 -4.296834,-4.79072 -1.580445,-3.06212 -1.580445,-7.01323 0,-3.95111 1.580445,-6.96383 1.580445,-3.06212 4.247446,-4.79073 2.716389,-1.778 6.025441,-1.778 2.07434,0 3.85234,0.69145 1.82739,0.69144 3.16089,1.778 1.3335,1.08655 2.07433,2.32128 0.74084,1.18533 0.74084,2.27189 l -1.53106,0.14816 v -14.6685 q 0,-1.08656 0.69144,-1.778 0.74084,-0.74084 1.778,-0.74084 z m -10.07533,32.4979 q 2.37067,0 4.09928,-1.18533 1.778,-1.18534 2.76578,-3.21028 0.98777,-2.02495 0.98777,-4.59317 0,-2.56822 -0.98777,-4.59317 -0.98778,-2.02494 -2.76578,-3.21027 -1.778,-1.18534 -4.09928,-1.18534 -2.27189,0 -4.049891,1.18534 -1.728611,1.18533 -2.765778,3.21027 -0.987778,2.02495 -0.987778,4.59317 0,2.56822 0.987778,4.59317 1.037167,2.02494 2.765778,3.21028 1.778001,1.18533 4.049891,1.18533 z m 40.74576,-22.32378 q 1.08656,0 1.778,0.74083 0.69145,0.69145 0.69145,1.778 v 21.33601 q 0,1.08655 -0.69145,1.82739 -0.69144,0.69144 -1.778,0.69144 -1.03716,0 -1.778,-0.69144 -0.69144,-0.74084 -0.69144,-1.82739 v -3.556 l 1.03717,0.14816 q 0,0.889 -0.74084,1.97556 -0.69144,1.08656 -1.92616,2.12372 -1.23473,0.98778 -2.91395,1.67922 -1.67922,0.64206 -3.60539,0.64206 -3.40783,0 -6.12422,-1.72861 -2.71639,-1.778 -4.29684,-4.84011 -1.58044,-3.06212 -1.58044,-6.96384 0,-4.0005 1.58044,-7.01322 1.58045,-3.06211 4.24745,-4.79073 2.71639,-1.72861 6.02544,-1.72861 2.12373,0 3.90173,0.69145 1.82739,0.69144 3.16089,1.778 1.3335,1.08655 2.02494,2.32128 0.74083,1.18533 0.74083,2.27189 l -1.53105,0.14816 v -4.49439 q 0,-1.03716 0.69144,-1.778 0.74084,-0.74083 1.778,-0.74083 z m -10.07533,22.32378 q 2.32128,0 4.09928,-1.18533 1.778,-1.18534 2.76578,-3.21028 0.98777,-2.07433 0.98777,-4.59317 0,-2.56822 -0.98777,-4.59317 -0.98778,-2.02494 -2.76578,-3.21027 -1.778,-1.18534 -4.09928,-1.18534 -2.27189,0 -4.04989,1.18534 -1.72861,1.18533 -2.76578,3.21027 -0.98778,2.02495 -0.98778,4.59317 0,2.51884 0.98778,4.59317 1.03717,2.02494 2.76578,3.21028 1.778,1.18533 4.04989,1.18533 z"
         id="path9" />
    </g>
  </g>
</svg>
