<?xml version="1.0" encoding="UTF-8" standalone="no"?>
<!-- Created with Inkscape (http://www.inkscape.org/) -->

<svg
   width="202.42133mm"
   height="232.42116mm"
   viewBox="0 0 202.42133 232.42116"
   version="1.1"
   id="svg1"
   inkscape:version="1.4.4 (dcaf3e7, 2026-05-05)"
   sodipodi:docname="tada.svg"
   xmlns:inkscape="http://www.inkscape.org/namespaces/inkscape"
   xmlns:sodipodi="http://sodipodi.sourceforge.net/DTD/sodipodi-0.dtd"
   xmlns="http://www.w3.org/2000/svg"
   xmlns:svg="http://www.w3.org/2000/svg">
  <sodipodi:namedview
     id="namedview1"
     pagecolor="#ffffff"
     bordercolor="#000000"
     borderopacity="0.25"
     inkscape:showpageshadow="2"
     inkscape:pageopacity="0.0"
     inkscape:pagecheckerboard="0"
     inkscape:deskcolor="#d1d1d1"
     inkscape:document-units="mm"
     inkscape:zoom="1"
     inkscape:cx="-20.5"
     inkscape:cy="398.5"
     inkscape:window-width="2510"
     inkscape:window-height="1371"
     inkscape:window-x="50"
     inkscape:window-y="32"
     inkscape:window-maximized="1"
     inkscape:current-layer="layer1" />
  <defs
     id="defs1">
    <rect
       x="272.26123"
       y="281.18784"
       width="669.9129"
       height="248.82329"
       id="rect2" />
  </defs>
  <g
     inkscape:label="Layer 1"
     inkscape:groupmode="layer"
     id="layer1"
     transform="translate(-5.2052958,-7.8332842)">
    <path
       style="font-size:180px;font-family:Quicksand;-inkscape-font-specification:Quicksand;text-align:center;white-space:pre;fill:#8c97a6;stroke:#8c97a6;stroke-width:7.55906;stroke-linecap:round;stroke-linejoin:round;fill-opacity:1;stroke-opacity:1"
       d="m 421.36815,356.0675 h 41.94 q 2.16,0 3.6,1.62 1.44,1.44 1.44,3.6 0,1.98 -1.44,3.42 -1.44,1.44 -3.6,1.44 h -41.94 q -2.16,0 -3.78,-1.44 -1.44,-1.62 -1.44,-3.6 0,-2.16 1.44,-3.6 1.62,-1.44 3.78,-1.44 z m 18.54,-25.38 q 2.34,0 3.78,1.62 1.62,1.62 1.62,3.78 v 90.36 q 0,5.04 1.26,7.56 1.44,2.52 3.6,3.42 2.16,0.72 4.32,0.72 1.44,0 2.52,-0.36 1.26,-0.54 2.7,-0.54 1.62,0 2.7,1.26 1.26,1.26 1.26,3.24 0,2.52 -2.88,4.32 -2.88,1.62 -6.84,1.62 -1.62,0 -4.86,-0.18 -3.24,-0.36 -6.66,-1.98 -3.42,-1.8 -5.76,-6.12 -2.16,-4.32 -2.16,-12.42 v -90.9 q 0,-2.16 1.44,-3.78 1.62,-1.62 3.96,-1.62 z m 123.83979,25.02 q 2.34,0 3.78,1.62 1.62,1.62 1.62,3.96 v 81 q 0,2.16 -1.62,3.78 -1.62,1.62 -3.78,1.62 -2.34,0 -3.96,-1.62 -1.44,-1.62 -1.44,-3.78 v -21.42 l 3.06,-1.44 q 0,5.04 -2.88,10.26 -2.7,5.22 -7.56,9.72 -4.86,4.5 -11.52,7.38 -6.48,2.7 -14.04,2.7 -12.24,0 -21.96,-6.3 -9.54,-6.3 -15.12,-17.28 -5.4,-10.98 -5.4,-24.66 0,-14.04 5.58,-24.66 5.58,-10.8 15.12,-16.92 9.54,-6.12 21.6,-6.12 7.74,0 14.4,2.7 6.84,2.7 11.88,7.38 5.04,4.68 7.74,10.8 2.88,5.94 2.88,12.42 l -3.78,-2.7 v -22.86 q 0,-2.34 1.44,-3.96 1.62,-1.62 3.96,-1.62 z m -37.44,83.7 q 9.54,0 16.92,-4.86 7.38,-5.04 11.52,-13.68 4.32,-8.82 4.32,-19.62 0,-10.62 -4.32,-19.08 -4.14,-8.46 -11.52,-13.5 -7.38,-5.04 -16.92,-5.04 -9.36,0 -16.92,4.86 -7.38,4.86 -11.7,13.32 -4.14,8.46 -4.14,19.44 0,10.8 4.14,19.62 4.32,8.64 11.7,13.68 7.38,4.86 16.92,4.86 z m 146.51982,-124.92 q 2.34,0 3.78,1.62 1.62,1.44 1.62,3.78 v 122.4 q 0,2.16 -1.62,3.78 -1.62,1.62 -3.78,1.62 -2.34,0 -3.96,-1.62 -1.44,-1.62 -1.44,-3.78 v -21.42 l 3.06,-2.52 q 0,5.04 -2.7,10.62 -2.7,5.4 -7.74,10.08 -4.86,4.68 -11.52,7.56 -6.48,2.88 -14.04,2.88 -12.06,0 -21.78,-6.3 -9.54,-6.3 -15.12,-17.1 -5.58,-10.8 -5.58,-24.66 0,-13.68 5.58,-24.48 5.58,-10.98 15.12,-17.1 9.54,-6.3 21.6,-6.3 7.38,0 14.04,2.7 6.66,2.7 11.7,7.38 5.22,4.68 8.1,10.8 3.06,5.94 3.06,12.42 l -3.78,-2.7 v -64.26 q 0,-2.16 1.44,-3.78 1.62,-1.62 3.96,-1.62 z m -37.44,124.92 q 9.72,0 16.92,-4.86 7.38,-5.04 11.52,-13.5 4.32,-8.64 4.32,-19.62 0,-10.8 -4.32,-19.26 -4.14,-8.64 -11.52,-13.5 -7.38,-5.04 -16.92,-5.04 -9.36,0 -16.92,5.04 -7.38,4.86 -11.7,13.5 -4.14,8.46 -4.14,19.26 0,10.8 4.14,19.44 4.32,8.64 11.7,13.68 7.56,4.86 16.92,4.86 z m 146.51981,-83.7 q 2.34,0 3.78,1.62 1.62,1.62 1.62,3.96 v 81 q 0,2.16 -1.62,3.78 -1.62,1.62 -3.78,1.62 -2.34,0 -3.96,-1.62 -1.44,-1.62 -1.44,-3.78 v -21.42 l 3.06,-1.44 q 0,5.04 -2.88,10.26 -2.7,5.22 -7.56,9.72 -4.86,4.5 -11.52,7.38 -6.48,2.7 -14.04,2.7 -12.24,0 -21.96,-6.3 -9.54,-6.3 -15.12,-17.28 -5.4,-10.98 -5.4,-24.66 0,-14.04 5.58,-24.66 5.58,-10.8 15.12,-16.92 9.54,-6.12 21.6,-6.12 7.74,0 14.4,2.7 6.84,2.7 11.88,7.38 5.04,4.68 7.74,10.8 2.88,5.94 2.88,12.42 l -3.78,-2.7 v -22.86 q 0,-2.34 1.44,-3.96 1.62,-1.62 3.96,-1.62 z m -37.44,83.7 q 9.54,0 16.92,-4.86 7.38,-5.04 11.52,-13.68 4.32,-8.82 4.32,-19.62 0,-10.62 -4.32,-19.08 -4.14,-8.46 -11.52,-13.5 -7.38,-5.04 -16.92,-5.04 -9.36,0 -16.92,4.86 -7.38,4.86 -11.7,13.32 -4.14,8.46 -4.14,19.44 0,10.8 4.14,19.62 4.32,8.64 11.7,13.68 7.38,4.86 16.92,4.86 z"
       id="text1"
       aria-label="tada"
       transform="matrix(0.26458333,0,0,0.26458333,-74.331991,-5.2916669)" />
    <g
       fill="#000000"
       fill-opacity="1"
       stroke="#000000"
       stroke-opacity="1"
       stroke-width="5"
       stroke-linecap="round"
       stroke-linejoin="bevel"
       font-family="Arial"
       font-size="12px"
       font-weight="400"
       font-style="normal"
       id="g13"
       transform="matrix(0.08466638,0,0,0.08466638,-466.92276,-251.12176)"
       style="stroke:#2a3546;stroke-width:118.111;stroke-dasharray:none;stroke-opacity:1">
      <g
         id="g3"
         style="stroke:#0d968c;stroke-width:118.111;stroke-dasharray:none;stroke-opacity:1"
         transform="translate(1.2303191e-4)">
        <polyline
           fill="none"
           vector-effect="none"
           points="7407.01,3618.68 7657.55,3368.14 "
           id="polyline3"
           style="stroke:#0d968c;stroke-width:118.111;stroke-dasharray:none;stroke-opacity:1" />
        <polyline
           fill="none"
           vector-effect="none"
           points="7052.68,3117.59 7052.68,3471.92 "
           id="polyline6"
           style="stroke:#0d968c;stroke-width:118.111;stroke-dasharray:none;stroke-opacity:1" />
        <polyline
           fill="none"
           vector-effect="none"
           points="7908.09,3973 7553.77,3973 "
           id="polyline8"
           style="stroke:#0d968c;stroke-width:118.111;stroke-dasharray:none;stroke-opacity:1" />
      </g>
      <g
         id="g4"
         style="stroke:#0d9188;stroke-opacity:1">
        <polyline
           fill="none"
           vector-effect="none"
           points="7052.68,3618.68 5989.71,3618.68 "
           id="polyline4"
           style="stroke:#0d9188;stroke-width:118.111;stroke-dasharray:none;stroke-opacity:1" />
        <polyline
           fill="none"
           vector-effect="none"
           points="5989.71,5744.62 7052.68,5744.62 "
           id="polyline5"
           style="stroke:#0d9188;stroke-width:118.111;stroke-dasharray:none;stroke-opacity:1"
           transform="translate(0.82213127)" />
        <polyline
           fill="none"
           vector-effect="none"
           points="7407.01,3973 7406.9,3964.31 7406.58,3955.62 7406.05,3946.94 7405.3,3938.27 7404.34,3929.63 7403.17,3921.01 7401.79,3912.43 7400.2,3903.88 7398.4,3895.37 7396.39,3886.91 7394.17,3878.5 7391.75,3870.15 7389.12,3861.86 7386.29,3853.64 7383.26,3845.48 7380.03,3837.41 7376.61,3829.42 7372.99,3821.51 7369.17,3813.7 7365.17,3805.98 7360.97,3798.36 7356.6,3790.85 7352.03,3783.44 7347.29,3776.15 7342.37,3768.98 7337.28,3761.93 7332.01,3755.01 7326.58,3748.22 7320.98,3741.57 7315.22,3735.05 7309.3,3728.68 7303.23,3722.46 7297,3716.39 7290.63,3710.47 7284.12,3704.71 7277.46,3699.11 7270.67,3693.67 7263.75,3688.41 7256.7,3683.31 7249.53,3678.39 7242.24,3673.65 7234.84,3669.09 7227.33,3664.71 7219.71,3660.52 7211.99,3656.51 7204.17,3652.7 7196.27,3649.08 7188.28,3645.65 7180.2,3642.42 7172.05,3639.39 7163.83,3636.56 7155.54,3633.94 7147.18,3631.52 7138.78,3629.3 7130.31,3627.29 7121.81,3625.49 7113.26,3623.9 7104.67,3622.52 7096.06,3621.35 7087.41,3620.39 7078.75,3619.64 7070.07,3619.11 7061.38,3618.79 7052.68,3618.68 "
           id="polyline7"
           style="stroke:#0d9188;stroke-width:118.111;stroke-dasharray:none;stroke-opacity:1" />
        <polyline
           fill="none"
           vector-effect="none"
           points="7052.68,5744.62 7061.38,5744.51 7070.07,5744.19 7078.75,5743.66 7087.41,5742.91 7096.06,5741.95 7104.67,5740.78 7113.26,5739.4 7121.81,5737.81 7130.31,5736.01 7138.78,5734 7147.18,5731.78 7155.54,5729.36 7163.83,5726.74 7172.05,5723.91 7180.2,5720.88 7188.28,5717.65 7196.27,5714.22 7204.17,5710.6 7211.99,5706.79 7219.71,5702.78 7227.33,5698.59 7234.84,5694.21 7242.24,5689.65 7249.53,5684.9 7256.7,5679.98 7263.75,5674.89 7270.67,5669.62 7277.46,5664.19 7284.12,5658.59 7290.63,5652.83 7297,5646.91 7303.23,5640.84 7309.3,5634.62 7315.22,5628.24 7320.98,5621.73 7326.58,5615.08 7332.01,5608.29 7337.28,5601.37 7342.37,5594.32 7347.29,5587.15 7352.03,5579.86 7356.6,5572.45 7360.97,5564.94 7365.17,5557.32 7369.17,5549.6 7372.99,5541.79 7376.61,5533.88 7380.03,5525.89 7383.26,5517.81 7386.29,5509.66 7389.12,5501.44 7391.75,5493.15 7394.17,5484.8 7396.39,5476.39 7398.4,5467.93 7400.2,5459.42 7401.79,5450.87 7403.17,5442.29 7404.34,5433.67 7405.3,5425.03 7406.05,5416.36 7406.58,5407.68 7406.9,5398.99 7407.01,5390.3 "
           id="polyline9"
           style="stroke:#0d9188;stroke-width:118.111;stroke-dasharray:none;stroke-opacity:1" />
        <polyline
           fill="none"
           vector-effect="none"
           points="5635.39,3973 5635.39,5390.3 "
           id="polyline10"
           style="stroke:#0d9188;stroke-width:118.111;stroke-dasharray:none;stroke-opacity:1" />
        <polyline
           fill="none"
           vector-effect="none"
           points="5989.71,3618.68 5981.02,3618.79 5972.33,3619.11 5963.65,3619.64 5954.98,3620.39 5946.34,3621.35 5937.72,3622.52 5929.14,3623.9 5920.59,3625.49 5912.08,3627.29 5903.62,3629.3 5895.21,3631.52 5886.86,3633.94 5878.57,3636.56 5870.35,3639.39 5862.19,3642.42 5854.12,3645.65 5846.13,3649.08 5838.22,3652.7 5830.41,3656.51 5822.69,3660.52 5815.07,3664.71 5807.56,3669.09 5800.15,3673.65 5792.86,3678.39 5785.69,3683.31 5778.64,3688.41 5771.72,3693.67 5764.93,3699.11 5758.28,3704.71 5751.76,3710.47 5745.39,3716.39 5739.17,3722.46 5733.1,3728.68 5727.18,3735.05 5721.42,3741.57 5715.82,3748.22 5710.38,3755.01 5705.12,3761.93 5700.02,3768.98 5695.1,3776.15 5690.36,3783.44 5685.8,3790.85 5681.42,3798.36 5677.23,3805.98 5673.22,3813.7 5669.41,3821.51 5665.79,3829.42 5662.36,3837.41 5659.13,3845.48 5656.1,3853.64 5653.27,3861.86 5650.65,3870.15 5648.23,3878.5 5646.01,3886.91 5644,3895.37 5642.2,3903.88 5640.61,3912.43 5639.23,3921.01 5638.06,3929.63 5637.1,3938.27 5636.35,3946.94 5635.82,3955.62 5635.5,3964.31 5635.39,3973 "
           id="polyline11"
           style="stroke:#0d9188;stroke-width:118.111;stroke-dasharray:none;stroke-opacity:1" />
        <polyline
           fill="none"
           vector-effect="none"
           points="7407.01,5390.3 7407.01,3973 "
           id="polyline12"
           style="stroke:#0d9188;stroke-width:118.111;stroke-dasharray:none;stroke-opacity:1" />
        <polyline
           fill="none"
           vector-effect="none"
           points="5635.39,5390.3 5635.5,5398.99 5635.82,5407.68 5636.35,5416.36 5637.1,5425.03 5638.06,5433.67 5639.23,5442.29 5640.61,5450.87 5642.2,5459.42 5644,5467.93 5646.01,5476.39 5648.23,5484.8 5650.65,5493.15 5653.27,5501.44 5656.1,5509.66 5659.13,5517.81 5662.36,5525.89 5665.79,5533.88 5669.41,5541.79 5673.22,5549.6 5677.23,5557.32 5681.42,5564.94 5685.8,5572.45 5690.36,5579.86 5695.1,5587.15 5700.02,5594.32 5705.12,5601.37 5710.38,5608.29 5715.82,5615.08 5721.42,5621.73 5727.18,5628.24 5733.1,5634.62 5739.17,5640.84 5745.39,5646.91 5751.76,5652.83 5758.28,5658.59 5764.93,5664.19 5771.72,5669.62 5778.64,5674.89 5785.69,5679.98 5792.86,5684.9 5800.15,5689.65 5807.56,5694.21 5815.07,5698.59 5822.69,5702.78 5830.41,5706.79 5838.22,5710.6 5846.13,5714.22 5854.12,5717.65 5862.19,5720.88 5870.35,5723.91 5878.57,5726.74 5886.86,5729.36 5895.21,5731.78 5903.62,5734 5912.08,5736.01 5920.59,5737.81 5929.14,5739.4 5937.72,5740.78 5946.34,5741.95 5954.98,5742.91 5963.65,5743.66 5972.33,5744.19 5981.02,5744.51 5989.71,5744.62 "
           id="polyline13"
           style="stroke:#0d9188;stroke-width:118.111;stroke-dasharray:none;stroke-opacity:1" />
      </g>
    </g>
    <g
       id="g7"
       transform="translate(4.3843208)">
      <path
         style="fill:#2a3546;fill-opacity:1;stroke:#2fbcae;stroke-width:10;stroke-linecap:round;stroke-linejoin:round;stroke-dasharray:none;stroke-opacity:1"
         d="m 70.622812,142.65654 60.000008,0.10438"
         id="path4"
         sodipodi:nodetypes="cc" />
      <path
         style="fill:#2a3546;fill-opacity:1;stroke:#2fbcae;stroke-width:10;stroke-linecap:round;stroke-linejoin:round;stroke-dasharray:none;stroke-opacity:1"
         d="M 70.622812,172.54196 H 130.62282"
         id="path5"
         sodipodi:nodetypes="cc" />
      <path
         style="fill:#2a3546;fill-opacity:1;stroke:#8c97a6;stroke-width:10;stroke-linecap:round;stroke-linejoin:round;stroke-dasharray:none;stroke-opacity:1"
         d="m 70.83157,202.32301 h 60.00001"
         id="path6"
         sodipodi:nodetypes="cc" />
      <path
         style="fill:none;fill-opacity:1;stroke:#0d9188;stroke-width:7;stroke-linecap:round;stroke-linejoin:round;stroke-dasharray:none;stroke-opacity:1"
         d="m 30.806207,141.73302 9.602875,8.35033 22.337124,-20.04078"
         id="path7" />
      <path
         style="fill:none;fill-opacity:1;stroke:#0d9188;stroke-width:7;stroke-linecap:round;stroke-linejoin:round;stroke-dasharray:none;stroke-opacity:1"
         d="m 30.806207,171.56625 9.602875,8.35033 22.337124,-20.04078"
         id="path7-2" />
      <rect
         style="fill:none;fill-opacity:1;stroke:#8c97a6;stroke-width:5;stroke-linecap:round;stroke-linejoin:round;stroke-dasharray:none;stroke-opacity:1"
         id="rect7"
         width="25"
         height="25"
         x="28.840124"
         y="189.82298"
         rx="5" />
    </g>
  </g>
</svg>
